<?xml version="1.0" standalone="no"?>
<!DOCTYPE svg PUBLIC "-//W3C//DTD SVG 20010904//EN"
 "http://www.w3.org/TR/2001/REC-SVG-20010904/DTD/svg10.dtd">
<svg version="1.0" xmlns="http://www.w3.org/2000/svg"
 width="1280.000000pt" height="1280.000000pt" viewBox="0 0 1280.000000 1280.000000"
 preserveAspectRatio="xMidYMid meet">
<metadata>
Created by potrace 1.11, written by Peter Selinger 2001-2013
</metadata>
<g transform="translate(0.000000,1280.000000) scale(0.100000,-0.100000)"
fill="#000000" stroke="none">
<path d="M6166 12162 c-2 -1 -48 -5 -102 -7 -54 -3 -119 -7 -144 -10 -25 -2
-72 -7 -105 -10 -33 -4 -76 -8 -95 -11 -19 -2 -55 -6 -80 -9 -25 -3 -56 -7
-70 -10 -14 -2 -45 -7 -70 -10 -43 -6 -218 -38 -270 -49 -14 -3 -59 -13 -100
-22 -216 -47 -578 -156 -775 -234 -44 -17 -84 -33 -90 -34 -24 -7 -181 -74
-275 -118 -87 -41 -279 -136 -315 -156 -143 -81 -279 -161 -360 -212 -100 -62
-343 -230 -367 -253 -7 -7 -39 -32 -71 -56 -75 -55 -282 -227 -355 -294 -149
-138 -396 -391 -487 -502 -22 -26 -45 -53 -51 -59 -13 -14 -232 -293 -256
-327 -365 -516 -614 -1004 -798 -1559 -63 -192 -88 -273 -106 -350 -2 -8 -12
-53 -24 -100 -21 -86 -55 -240 -65 -295 -18 -106 -35 -206 -40 -245 -3 -25 -8
-56 -10 -70 -8 -48 -17 -126 -20 -175 -2 -27 -6 -72 -9 -100 -24 -228 -24
-781 -1 -965 2 -19 7 -64 10 -100 3 -36 7 -82 10 -102 3 -21 7 -55 10 -75 7
-59 26 -185 31 -213 3 -14 12 -62 20 -108 17 -94 63 -302 69 -312 2 -4 6 -18
8 -31 19 -103 153 -528 198 -626 10 -24 19 -47 19 -53 0 -5 9 -29 19 -52 11
-24 32 -72 47 -108 337 -798 864 -1518 1539 -2106 390 -339 899 -666 1370
-879 138 -62 214 -94 275 -117 30 -12 66 -25 80 -31 14 -6 27 -11 30 -12 3 -1
12 -5 20 -8 48 -21 345 -114 483 -151 179 -49 265 -69 442 -102 86 -16 96 -18
165 -28 25 -4 56 -9 70 -11 14 -3 44 -7 68 -10 23 -3 61 -7 85 -11 23 -3 65
-7 92 -9 28 -2 75 -7 105 -10 118 -11 303 -18 490 -18 238 1 387 8 575 28 28
3 70 7 95 10 25 2 61 7 80 10 19 3 49 8 65 10 29 4 68 9 138 20 17 3 43 7 57
10 14 3 41 8 60 11 52 10 59 11 135 28 39 9 81 19 95 22 158 32 448 119 700
209 187 67 579 245 730 332 19 11 62 35 95 53 33 18 89 51 125 73 36 22 74 45
85 51 45 25 225 146 305 204 47 34 96 70 109 80 14 9 41 31 62 47 20 17 65 53
100 80 197 157 527 470 674 640 33 38 76 87 96 110 151 171 375 479 520 715
80 130 66 106 162 280 50 90 217 433 217 446 0 2 11 27 23 56 13 29 30 69 37
88 7 19 19 49 26 65 64 148 226 677 239 780 1 11 7 38 13 60 6 22 14 54 17 70
18 90 44 236 50 275 3 25 8 56 10 70 3 14 7 45 10 70 3 25 7 61 9 80 3 19 7
62 11 95 3 33 8 80 10 105 23 210 23 735 0 965 -10 102 -17 171 -21 200 -2 17
-6 53 -9 80 -3 28 -8 57 -10 65 -2 8 -7 40 -10 70 -3 30 -8 62 -10 70 -3 8
-14 62 -24 120 -28 148 -30 156 -52 245 -11 44 -22 87 -24 96 -26 123 -154
524 -196 616 -10 24 -19 47 -19 53 0 5 -9 29 -19 52 -11 24 -32 72 -47 108
-239 565 -607 1142 -1019 1598 -49 54 -367 374 -411 412 -442 390 -820 648
-1314 896 -221 110 -399 185 -670 280 -85 30 -155 54 -155 55 0 0 -7 2 -15 4
-8 2 -55 15 -105 30 -85 25 -324 86 -390 100 -16 3 -77 15 -135 26 -58 10
-112 21 -120 24 -8 2 -40 7 -70 10 -30 3 -62 8 -70 10 -8 2 -37 7 -65 10 -27
3 -63 7 -80 9 -29 4 -98 11 -200 21 -138 14 -709 27 -719 17z"/>
</g>
</svg>
